<?xml version="1.0" encoding="UTF-8" standalone="no"?>
<svg
   data-name="Layer 1"
   viewBox="0 0 77.126002 77.125996"
   version="1.1"
   id="svg31"
   width="77.125999"
   height="77.125999"
   sodipodi:docname="icon-unsaved.svg"
   inkscape:version="1.2.2 (732a01da63, 2022-12-09, custom)"
   inkscape:export-filename="../92c48959/icon-unsaved-48.png"
   inkscape:export-xdpi="59.746391"
   inkscape:export-ydpi="59.746391"
   xmlns:inkscape="http://www.inkscape.org/namespaces/inkscape"
   xmlns:sodipodi="http://sodipodi.sourceforge.net/DTD/sodipodi-0.dtd"
   xmlns:xlink="http://www.w3.org/1999/xlink"
   xmlns="http://www.w3.org/2000/svg"
   xmlns:svg="http://www.w3.org/2000/svg">
  <sodipodi:namedview
     id="namedview35"
     pagecolor="#ffffff"
     bordercolor="#111111"
     borderopacity="1"
     inkscape:showpageshadow="0"
     inkscape:pageopacity="0"
     inkscape:pagecheckerboard="1"
     inkscape:deskcolor="#d1d1d1"
     showgrid="false"
     inkscape:zoom="10.839406"
     inkscape:cx="38.563"
     inkscape:cy="44.375126"
     inkscape:window-width="1606"
     inkscape:window-height="1013"
     inkscape:window-x="0"
     inkscape:window-y="0"
     inkscape:window-maximized="1"
     inkscape:current-layer="layer2" />
  <defs
     id="defs25">
    <linearGradient
       inkscape:collect="always"
       id="linearGradient1378">
      <stop
         style="stop-color:#33bbdd;stop-opacity:1;"
         offset="0"
         id="stop1374" />
      <stop
         style="stop-color:#394ac1;stop-opacity:1;"
         offset="1"
         id="stop1376" />
    </linearGradient>
    <linearGradient
       inkscape:collect="always"
       id="linearGradient1354">
      <stop
         style="stop-color:#4b4b4b;stop-opacity:1;"
         offset="0"
         id="stop1350" />
      <stop
         style="stop-color:#c9c9c9;stop-opacity:1;"
         offset="1"
         id="stop1352" />
    </linearGradient>
    <inkscape:path-effect
       effect="bspline"
       id="path-effect475"
       is_visible="true"
       lpeversion="1"
       weight="33.333333"
       steps="2"
       helper_size="0"
       apply_no_weight="true"
       apply_with_weight="true"
       only_selected="false" />
    <inkscape:path-effect
       effect="bspline"
       id="path-effect471"
       is_visible="true"
       lpeversion="1"
       weight="33.333333"
       steps="2"
       helper_size="0"
       apply_no_weight="true"
       apply_with_weight="true"
       only_selected="false" />
    <inkscape:path-effect
       effect="bspline"
       id="path-effect413"
       is_visible="true"
       lpeversion="1"
       weight="33.333333"
       steps="2"
       helper_size="0"
       apply_no_weight="true"
       apply_with_weight="true"
       only_selected="false" />
    <inkscape:path-effect
       effect="bspline"
       id="path-effect313"
       is_visible="true"
       lpeversion="1"
       weight="33.333333"
       steps="2"
       helper_size="0"
       apply_no_weight="true"
       apply_with_weight="true"
       only_selected="false" />
    <inkscape:path-effect
       effect="bspline"
       id="path-effect255"
       is_visible="true"
       lpeversion="1"
       weight="33.333333"
       steps="2"
       helper_size="0"
       apply_no_weight="true"
       apply_with_weight="true"
       only_selected="false" />
    <inkscape:path-effect
       effect="bspline"
       id="path-effect197"
       is_visible="true"
       lpeversion="1"
       weight="33.333333"
       steps="2"
       helper_size="0"
       apply_no_weight="true"
       apply_with_weight="true"
       only_selected="false" />
    <linearGradient
       id="a"
       x1="460.66"
       y1="-120.15"
       x2="449.39001"
       y2="-109.49"
       gradientTransform="matrix(1,0,0,-1,-389,-47.01)"
       gradientUnits="userSpaceOnUse">
      <stop
         offset="0"
         stop-color="#054096"
         stop-opacity=".5"
         id="stop2" />
      <stop
         offset=".1"
         stop-color="#173ba1"
         stop-opacity=".44"
         id="stop4" />
      <stop
         offset=".29"
         stop-color="#3434b3"
         stop-opacity=".33"
         id="stop6" />
      <stop
         offset=".49"
         stop-color="#482ec1"
         stop-opacity=".22"
         id="stop8" />
      <stop
         offset=".68"
         stop-color="#552bc8"
         stop-opacity=".11"
         id="stop10" />
      <stop
         offset=".86"
         stop-color="#592acb"
         stop-opacity="0"
         id="stop12" />
    </linearGradient>
    <linearGradient
       id="b"
       x1="3.3900001"
       y1="42.560001"
       x2="73.599998"
       y2="42.560001"
       gradientTransform="matrix(0.57029209,0,0,-0.57551992,26.793453,46.689372)"
       gradientUnits="userSpaceOnUse">
      <stop
         offset="0"
         stop-color="#9059ff"
         id="stop15" />
      <stop
         offset="1"
         stop-color="#f770ff"
         id="stop17" />
    </linearGradient>
    <linearGradient
       id="c"
       x1="40.919998"
       y1="20.280001"
       x2="81.589996"
       y2="3.0699999"
       gradientTransform="matrix(1,0,0,-1,0,82.99)"
       gradientUnits="userSpaceOnUse">
      <stop
         offset="0"
         stop-color="#54ffbd"
         id="stop20" />
      <stop
         offset="1"
         stop-color="#0df"
         id="stop22" />
    </linearGradient>
    <linearGradient
       inkscape:collect="always"
       xlink:href="#linearGradient1354"
       id="linearGradient1356"
       x1="0"
       y1="55.328808"
       x2="55"
       y2="55.328808"
       gradientUnits="userSpaceOnUse"
       gradientTransform="scale(0.87034199)" />
    <radialGradient
       inkscape:collect="always"
       xlink:href="#linearGradient1378"
       id="radialGradient1380"
       cx="27.5"
       cy="36.876923"
       fx="27.5"
       fy="36.876923"
       r="27.5"
       gradientTransform="matrix(0.87034199,0,0,0.42349997,0,16.478159)"
       gradientUnits="userSpaceOnUse" />
    <inkscape:path-effect
       effect="bspline"
       id="path-effect313-7"
       is_visible="true"
       lpeversion="1"
       weight="33.333333"
       steps="2"
       helper_size="0"
       apply_no_weight="true"
       apply_with_weight="true"
       only_selected="false" />
  </defs>
  <g
     inkscape:groupmode="layer"
     id="layer1"
     inkscape:label="back"
     style="display:inline">
    <path
       style="display:inline;fill:url(#radialGradient1380);fill-opacity:1;stroke-width:0.795936"
       d="m 0,28.353498 c 0,-2.062358 0,-3.163171 0,-4.077553 0,-0.914383 0,-1.642244 0.29019681,-2.24926 0.29019682,-0.607017 0.87040189,-1.092257 1.59605939,-1.334828 0.7256576,-0.24257 1.5959639,-0.24257 3.4817431,-0.24257 1.8857793,0 4.7868047,0 6.5275227,0 1.740719,0 2.320924,0 2.876461,0.257903 0.555537,0.257902 1.086412,0.772901 1.727508,1.403629 0.641097,0.630727 1.392387,1.377137 1.930053,1.968888 0.537666,0.591751 0.861818,1.028713 1.308776,1.246764 0.446958,0.218051 1.016453,0.218051 4.274937,0.218051 3.258484,0 9.205567,0 12.904586,0 3.699018,0 5.149529,0 6.600128,0.606951 1.450599,0.606952 2.901112,1.820054 3.625976,3.033229 0.724865,1.213175 0.724865,2.426278 0.724865,4.246041 0,1.819762 0,4.245969 -0.725223,6.065303 -0.725223,1.819334 -2.175734,3.032436 -9.428371,3.639088 C 30.462581,43.741786 17.407971,43.741786 4.3517101,43.741786 2.9011401,42.528635 1.4514695,41.316237 0.72573474,40.103061 0,38.889885 0,37.676783 0,35.558227 0,33.439672 0,30.415857 0,28.353498 Z"
       id="path473"
       sodipodi:nodetypes="ccccccccccccccccccccc"
       inkscape:label="path473"
       inkscape:original-d="m 0,27.39125 c 8.7034203e-4,-1.10011 8.7034203e-4,-2.200923 0,-3.30251 8.7034203e-4,-0.727178 8.7034203e-4,-1.455039 0,-2.183673 0.58110996,-0.484542 1.1613148,-0.969783 1.740684,-1.45578 0.8712298,7.27e-4 1.7415361,7.27e-4 2.6110261,0 2.9020685,7.27e-4 5.8030939,7.27e-4 8.7034199,0 0.581111,7.27e-4 1.161316,7.27e-4 1.740684,0 0.531765,0.515745 1.06264,1.030744 1.592652,1.545023 0.75219,0.747167 1.50348,1.493578 2.253914,2.239273 0.325042,0.437717 0.649196,0.874678 0.972497,1.310939 0.570401,7.27e-4 1.139896,7.27e-4 1.708554,0 5.94831,7.27e-4 11.895393,7.27e-4 17.841962,0 1.451468,7.27e-4 2.901979,7.27e-4 4.351708,0 1.45147,1.213902 2.901982,2.427005 4.351711,3.639453 8.7e-4,1.213902 8.7e-4,2.427005 0,3.639451 8.7e-4,2.427079 8.7e-4,4.853286 0,7.278908 -1.449729,1.213903 -2.900241,2.427004 -4.351711,3.639452 -13.05452,7.29e-4 -26.10913,7.29e-4 -39.1653909,0 0,0 -2.9002407,-2.425549 -4.3517101,-3.639452 8.7034203e-4,-1.212449 8.7034203e-4,-2.425551 0,-3.639453 8.7034203e-4,-3.023209 8.7034203e-4,-6.047024 0,-9.071631 z"
       inkscape:path-effect="#path-effect475" />
  </g>
  <g
     inkscape:groupmode="layer"
     id="layer3"
     inkscape:label="middle"
     style="display:inline"
     transform="matrix(1.1956522,0,0,1.1960784,-15.089871,0)">
    <path
       d="M 66.822259,9.6834411 50.625962,0.47512251 a 3.8836895,3.9192907 0 0 0 -3.706899,0 L 30.665739,9.6834411 a 3.8095515,3.8444732 0 0 0 -1.938995,3.3380149 v 18.359087 a 3.7411165,3.7754108 0 0 0 1.938995,3.338017 l 16.196296,9.150765 a 3.5871375,3.6200206 0 0 0 1.881964,0.517968 3.7411165,3.7754108 0 0 0 1.881963,-0.517968 L 66.822259,34.71856 a 3.8095515,3.8444732 0 0 0 1.938993,-3.338017 V 13.021456 A 3.6384639,3.6718173 0 0 0 66.822259,9.6834411 Z"
       fill="url(#b)"
       id="path27"
       style="display:inline;fill:url(#b);stroke-width:0.572898" />
    <path
       d="m 37.452215,27.006591 -0.969498,0.57552 a 1.4941654,1.5078622 0 0 0 -0.570291,2.071873 1.5112741,1.5251278 0 0 0 1.311671,0.805727 1.7564997,1.7726014 0 0 0 0.74138,-0.172652 l 0.969498,-0.575521 a 1.4941654,1.5078622 0 0 0 0.570291,-2.071871 1.4656507,1.4790863 0 0 0 -2.053051,-0.633072 z m 5.931037,-3.395567 -1.996021,1.15104 a 1.4941654,1.5078622 0 0 0 -0.570292,2.071872 1.5112741,1.5251278 0 0 0 1.311672,0.805727 1.7564997,1.7726014 0 0 0 0.741378,-0.172651 l 1.996024,-1.151042 a 1.4941654,1.5078622 0 0 0 0.570292,-2.071871 1.4656507,1.4790863 0 0 0 -2.053053,-0.633072 z m 8.04112,-2.814293 a 1.3458895,1.358227 0 0 0 -0.79841,-0.690624 V 8.5324015 A 1.534086,1.5481486 0 0 0 49.086174,6.9784986 1.4884625,1.5021072 0 0 0 47.603414,8.5324015 V 20.157904 a 1.3458895,1.358227 0 0 0 -0.798409,0.690624 1.516977,1.530883 0 0 0 -0.05703,1.323696 1.516977,1.530883 0 0 0 0.05703,1.323696 1.3458895,1.358227 0 0 0 0.798409,0.690623 v 11.625506 a 1.5397892,1.5539043 0 0 0 3.079578,0 V 24.128991 a 1.3458895,1.358227 0 0 0 0.79841,-0.690623 1.516977,1.530883 0 0 0 0.05702,-1.323696 1.7564997,1.7726014 0 0 0 -0.114051,-1.317941 z m 3.883689,-3.976843 -1.996023,1.15104 a 1.4941654,1.5078622 0 0 0 -0.570292,2.071873 1.5112741,1.5251278 0 0 0 1.311672,0.805727 1.7564997,1.7726014 0 0 0 0.74138,-0.172652 l 1.996024,-1.151041 a 1.4941654,1.5078622 0 0 0 0.57029,-2.071871 1.4656507,1.4790863 0 0 0 -2.053051,-0.633073 z m 4.727723,0.57552 a 1.7564997,1.7726014 0 0 0 0.74138,-0.172655 l 0.969495,-0.57552 A 1.5067119,1.5205236 0 1 0 60.263901,13.99984 l -0.969497,0.575521 a 1.4941654,1.5078622 0 0 0 -0.570293,2.071872 1.4599479,1.4733311 0 0 0 1.311673,0.748175 z m 1.710875,10.186703 -0.969495,-0.57552 a 1.5067119,1.5205236 0 0 0 -1.48276,2.647393 l 0.969497,0.575519 a 1.7564997,1.7726014 0 0 0 0.74138,0.172652 1.5112741,1.5251278 0 0 0 1.311669,-0.805727 1.4086216,1.4215342 0 0 0 -0.570291,-2.014321 z m -4.961542,-2.820047 -1.996021,-1.15104 a 1.5067119,1.5205236 0 1 0 -1.48276,2.647392 l 1.996022,1.151039 a 1.7564997,1.7726014 0 0 0 0.74138,0.172652 1.5112741,1.5251278 0 0 0 1.311672,-0.805727 1.3972157,1.4100238 0 0 0 -0.570293,-2.014319 z m -15.397886,-5.294783 1.996021,1.151038 a 1.7564997,1.7726014 0 0 0 0.741381,0.172651 1.5112741,1.5251278 0 0 0 1.311672,-0.805727 1.4941654,1.5078622 0 0 0 -0.570292,-2.071872 l -1.996024,-1.151034 a 1.4941654,1.5078622 0 0 0 -2.05305,0.575518 1.596818,1.6114558 0 0 0 0.570292,2.129426 z m -2.452256,-4.89192 -0.969498,-0.575521 a 1.5067119,1.5205236 0 1 0 -1.48276,2.647393 l 0.969498,0.575519 a 1.7564997,1.7726014 0 0 0 0.741377,0.172655 1.5112741,1.5251278 0 0 0 1.311674,-0.805727 1.4428391,1.4560655 0 0 0 -0.570291,-2.014319 z"
       fill="#20133a"
       id="path29"
       style="display:inline;stroke-width:0.572898" />
  </g>
  <g
     inkscape:groupmode="layer"
     id="layer2"
     inkscape:label="front"
     style="display:inline">
    <path
       style="display:inline;fill:url(#linearGradient1356);fill-opacity:1;fill-rule:evenodd;stroke-width:0.796363;stroke-dasharray:none"
       d="M 0.72572013,63.487275 C 0,62.274124 0,61.060998 0,56.41878 0,51.776562 0,43.705788 0,39.201753 0,34.697718 0,33.760964 0.72537637,32.685543 1.4507527,31.610123 2.901265,30.397021 4.3522225,29.790498 5.80318,29.183975 7.2536916,29.183975 13.056088,29.183975 c 5.802397,0 15.955978,0 21.758376,0 5.802397,0 7.252908,0 8.703507,0.606951 1.4506,0.606951 2.901112,1.820054 3.625977,3.264989 0.724864,1.444935 0.724864,3.121526 0.724864,7.62556 0,4.504034 0,11.83497 0,16.107246 0,4.272277 0,5.485379 -0.725222,6.698126 -0.725223,1.212746 -2.175735,2.425849 -3.625977,3.032501 C 42.067372,67.126 40.616861,67.126 34.814465,67.126 c -5.802396,0 -15.955979,0 -21.758376,0 -5.8023977,0 -7.2529094,0 -8.7035086,-0.606224 -1.4505993,-0.606224 -2.9011401,-1.81935 -3.62686027,-3.032501 z"
       id="path311"
       sodipodi:nodetypes="ccccccccccccccccc"
       inkscape:label="path311"
       inkscape:original-d="M 0,63.486547 C 8.7034203e-4,62.274124 8.7034203e-4,61.060998 0,59.847094 8.7034203e-4,51.776562 8.7034203e-4,43.705788 0,35.633799 8.7034203e-4,34.697718 8.7034203e-4,33.760964 0,32.823426 1.4514696,31.61098 2.9019811,30.397877 4.3517101,29.183975 c 1.4514699,7.27e-4 2.9019815,7.27e-4 4.3517102,0 10.1550647,7.27e-4 20.3086457,7.27e-4 30.4619727,0 1.451468,7.27e-4 2.901979,7.27e-4 4.351708,0 1.45147,1.213902 2.901982,2.427005 4.351711,3.639451 8.7e-4,1.677424 8.7e-4,3.354015 0,5.029979 8.7e-4,7.332104 8.7e-4,14.66304 0,21.993689 8.7e-4,1.213904 8.7e-4,2.427006 0,3.639453 -1.449729,1.213902 -2.900241,2.427005 -4.351711,3.639453 -1.449729,7.27e-4 -2.90024,7.27e-4 -4.351708,0 -10.153324,7.27e-4 -20.306907,7.27e-4 -30.4619727,0 -1.449729,7.27e-4 -2.9002407,7.27e-4 -4.3517102,0 C 2.9019815,65.913552 1.4514401,64.700426 0,63.486547 Z"
       inkscape:path-effect="#path-effect313" />
    <circle
       style="fill:#da0000;fill-opacity:1;fill-rule:evenodd;stroke-width:0.913168"
       id="path1139"
       cx="52.125999"
       cy="52.125999"
       r="25" />
  </g>
</svg>
